<?xml version="1.0" encoding="UTF-8"?>
<svg version="1.1" xmlns="http://www.w3.org/2000/svg" width="768" height="768">
<path d="M0 0 C253.44 0 506.88 0 768 0 C768 253.44 768 506.88 768 768 C514.56 768 261.12 768 0 768 C0 514.56 0 261.12 0 0 Z " fill="#000000" transform="translate(0,0)"/>
<path d="M0 0 C1.96706909 0.0012085 1.96706909 0.0012085 3.97387695 0.00244141 C12.96431128 0.04228415 21.9060798 0.40417861 30.875 1.0625 C31.95305908 1.14089111 33.03111816 1.21928223 34.1418457 1.30004883 C42.74276227 2.00204085 51.17188248 2.86495587 59.1875 6.1875 C61.51498694 6.87429942 63.84736656 7.54511043 66.1875 8.1875 C66.1875 8.8475 66.1875 9.5075 66.1875 10.1875 C66.97125 10.14625 67.755 10.105 68.5625 10.0625 C71.1875 10.1875 71.1875 10.1875 73.1875 12.1875 C74.75355781 12.8683947 76.3221845 13.54391 77.90234375 14.19140625 C82.76287677 16.31010013 87.46042318 18.78903245 92.1875 21.1875 C92.1875 21.8475 92.1875 22.5075 92.1875 23.1875 C92.73921875 23.29191406 93.2909375 23.39632812 93.859375 23.50390625 C96.68338509 24.33310384 98.91304916 25.6154965 101.4375 27.125 C102.32953125 27.64964844 103.2215625 28.17429688 104.140625 28.71484375 C105.15382813 29.44380859 105.15382813 29.44380859 106.1875 30.1875 C106.1875 30.8475 106.1875 31.5075 106.1875 32.1875 C107.1775 32.1875 108.1675 32.1875 109.1875 32.1875 C109.1875 32.8475 109.1875 33.5075 109.1875 34.1875 C109.8475 34.1875 110.5075 34.1875 111.1875 34.1875 C111.1875 34.8475 111.1875 35.5075 111.1875 36.1875 C112.1775 36.1875 113.1675 36.1875 114.1875 36.1875 C115.5625 37.375 115.5625 37.375 117.1875 39.1875 C118.074375 40.033125 118.96125 40.87875 119.875 41.75 C122.1875 44.1875 122.1875 44.1875 122.1875 46.1875 C123.1775 46.5175 124.1675 46.8475 125.1875 47.1875 C125.1875 47.8475 125.1875 48.5075 125.1875 49.1875 C125.8475 49.1875 126.5075 49.1875 127.1875 49.1875 C133.28190643 54.93600768 140.53375689 63.22627066 143.1875 71.1875 C143.8475 71.1875 144.5075 71.1875 145.1875 71.1875 C146.44414978 74.09350261 147.1875 75.98354584 147.1875 79.1875 C147.8475 79.1875 148.5075 79.1875 149.1875 79.1875 C149.44273437 80.11369141 149.44273437 80.11369141 149.703125 81.05859375 C150.96676008 85.47459507 152.3273641 89.69848755 154.25 93.875 C156.94901085 99.75719541 158.24983286 105.30273121 158.83984375 111.70703125 C159.2209975 114.42649904 159.92599522 116.92482402 160.6875 119.5625 C162.91926651 127.94523273 162.92587585 136.56292457 163.1875 145.1875 C163.8475 145.1875 164.5075 145.1875 165.1875 145.1875 C165.13420532 146.30777588 165.13420532 146.30777588 165.07983398 147.45068359 C164.92262695 150.82105535 164.77370986 154.1917431 164.625 157.5625 C164.56892578 158.738125 164.51285156 159.91375 164.45507812 161.125 C164.38256836 162.80722656 164.38256836 162.80722656 164.30859375 164.5234375 C164.23789673 166.07877197 164.23789673 166.07877197 164.16577148 167.66552734 C164.00272704 170.18419673 164.00272704 170.18419673 165.1875 172.1875 C166.1775 172.5175 167.1675 172.8475 168.1875 173.1875 C168.1875 173.8475 168.1875 174.5075 168.1875 175.1875 C169.21875 174.73375 170.25 174.28 171.3125 173.8125 C174.55187508 172.42042639 177.82489693 171.25369122 181.1875 170.1875 C181.1875 169.5275 181.1875 168.8675 181.1875 168.1875 C182.8375 167.8575 184.4875 167.5275 186.1875 167.1875 C186.1875 166.5275 186.1875 165.8675 186.1875 165.1875 C192.83496895 162.49187283 199.08920866 160.75374623 206.1875 159.7578125 C209.22641331 159.18010242 211.7649059 158.22441323 214.625 157.0625 C221.98041364 154.45002674 229.23824098 154.94731334 236.9296875 155.11328125 C241.50540376 155.21016124 246.00150959 155.03594446 250.5625 154.6875 C274.78101542 153.03679752 274.78101542 153.03679752 282.1875 158.1875 C282.5175 158.8475 282.8475 159.5075 283.1875 160.1875 C284.83113134 160.90909424 286.49800386 161.58101421 288.1875 162.1875 C288.1875 162.8475 288.1875 163.5075 288.1875 164.1875 C289.1775 164.1875 290.1675 164.1875 291.1875 164.1875 C291.1875 165.1775 291.1875 166.1675 291.1875 167.1875 C292.5075 167.5175 293.8275 167.8475 295.1875 168.1875 C296.7846564 176.97186019 296.7846564 176.97186019 294.4375 181.75 C292.1875 184.1875 292.1875 184.1875 289.1875 185.1875 C289.1875 185.8475 289.1875 186.5075 289.1875 187.1875 C287.19695124 187.88187747 285.19494615 188.54360218 283.1875 189.1875 C282.0428125 189.5896875 282.0428125 189.5896875 280.875 190 C275.76542627 190.35648189 270.97261005 187.92482806 266.3125 186 C261.59531821 184.77353274 257.01757263 184.42796186 252.1875 185.1875 C249.18416733 187.52086666 249.18416733 187.52086666 247.1875 190.1875 C246.1975 190.1875 245.2075 190.1875 244.1875 190.1875 C243.8575 191.1775 243.5275 192.1675 243.1875 193.1875 C241.125 193.875 241.125 193.875 239.1875 194.1875 C239.1875 194.8475 239.1875 195.5075 239.1875 196.1875 C238.1975 196.1875 237.2075 196.1875 236.1875 196.1875 C236.1875 196.8475 236.1875 197.5075 236.1875 198.1875 C235.5275 198.1875 234.8675 198.1875 234.1875 198.1875 C234.1875 198.8475 234.1875 199.5075 234.1875 200.1875 C233.1975 200.5175 232.2075 200.8475 231.1875 201.1875 C228.87174544 203.38746683 226.67595656 205.66286148 224.5 208 C223.1875 209.1875 223.1875 209.1875 221.1875 209.1875 C220.8471875 210.363125 220.8471875 210.363125 220.5 211.5625 C218.84663521 214.86922957 217.52137661 214.90523977 214.1875 216.1875 C213.3637044 218.14878755 213.3637044 218.14878755 213.1875 220.1875 C212.8575 220.8475 212.5275 221.5075 212.1875 222.1875 C211.5275 222.1875 210.8675 222.1875 210.1875 222.1875 C210.1875 223.1775 210.1875 224.1675 210.1875 225.1875 C209.5275 225.1875 208.8675 225.1875 208.1875 225.1875 C208.06375 225.950625 207.94 226.71375 207.8125 227.5 C207.1875 230.1875 207.1875 230.1875 205.1875 233.1875 C204.80250109 234.84299531 204.45956865 236.5097433 204.1875 238.1875 C203.5275 238.1875 202.8675 238.1875 202.1875 238.1875 C201.66602595 244.70592565 202.33649741 247.75079046 206.1875 253.1875 C207.07788263 256.15218062 207.67231247 259.13704752 208.1875 262.1875 C208.8475 262.1875 209.5075 262.1875 210.1875 262.1875 C211.87683922 263.8311814 213.54009924 265.5017876 215.1875 267.1875 C217.93337131 269.54110398 219.75020161 271.04173387 223.1875 272.1875 C223.1875 272.8475 223.1875 273.5075 223.1875 274.1875 C230.7775 274.1875 238.3675 274.1875 246.1875 274.1875 C246.1875 273.5275 246.1875 272.8675 246.1875 272.1875 C247.64287568 271.34901196 249.10190373 270.51686066 250.5625 269.6875 C251.37460937 269.2234375 252.18671875 268.759375 253.0234375 268.28125 C255.1875 267.1875 255.1875 267.1875 257.1875 267.1875 C257.290625 266.61 257.39375 266.0325 257.5 265.4375 C258.29646465 262.83088842 259.37815277 261.2139689 261.1875 259.1875 C261.8475 259.1875 262.5075 259.1875 263.1875 259.1875 C263.1875 258.1975 263.1875 257.2075 263.1875 256.1875 C266.22708906 253.48220383 268.68204469 252.99855484 272.61328125 253.11328125 C274.24342371 253.22547729 275.87246127 253.35484461 277.5 253.5 C278.33595703 253.56123047 279.17191406 253.62246094 280.03320312 253.68554688 C282.08579176 253.83802489 284.13685823 254.01075725 286.1875 254.1875 C286.1875 254.8475 286.1875 255.5075 286.1875 256.1875 C286.8475 256.1875 287.5075 256.1875 288.1875 256.1875 C292.38152147 261.80357298 292.08821982 267.46452723 291.1875 274.1875 C289.83356271 279.10274735 287.90557842 283.87348563 285.1875 288.1875 C282.984375 289.078125 282.984375 289.078125 281.1875 289.1875 C281.1875 289.8475 281.1875 290.5075 281.1875 291.1875 C275.4375 294.1875 275.4375 294.1875 273.1875 294.1875 C273.1875 294.8475 273.1875 295.5075 273.1875 296.1875 C247.25270369 303.73740737 223.78599363 306.86601391 198.1875 296.1875 C198.1875 295.5275 198.1875 294.8675 198.1875 294.1875 C197.589375 294.084375 196.99125 293.98125 196.375 293.875 C193.87491714 293.08925967 192.81214918 292.21831147 191.1875 290.1875 C191.1875 289.5275 191.1875 288.8675 191.1875 288.1875 C190.1975 287.8575 189.2075 287.5275 188.1875 287.1875 C188.1875 286.5275 188.1875 285.8675 188.1875 285.1875 C187.1975 284.8575 186.2075 284.5275 185.1875 284.1875 C184.15736723 282.53928756 183.15635372 280.87246298 182.1875 279.1875 C181.5275 278.8575 180.8675 278.5275 180.1875 278.1875 C179.59394386 275.53889573 179.44540731 272.89552678 179.1875 270.1875 C178.5275 270.1875 177.8675 270.1875 177.1875 270.1875 C173.56016725 261.7427647 173.84205812 253.62371383 174 244.625 C174.01507608 243.12436241 174.02875931 241.62371015 174.04101562 240.12304688 C174.07378518 236.47755548 174.12540521 232.83262365 174.1875 229.1875 C174.8475 228.8575 175.5075 228.5275 176.1875 228.1875 C176.496875 227.0325 176.80625 225.8775 177.125 224.6875 C177.475625 223.5325 177.82625 222.3775 178.1875 221.1875 C179.1775 220.8575 180.1675 220.5275 181.1875 220.1875 C181.1875 216.5575 181.1875 212.9275 181.1875 209.1875 C175.17794335 211.45182103 175.17794335 211.45182103 171.6875 216.4375 C171.5225 217.345 171.3575 218.2525 171.1875 219.1875 C170.5275 219.1875 169.8675 219.1875 169.1875 219.1875 C169.1875 220.1775 169.1875 221.1675 169.1875 222.1875 C168.5275 222.1875 167.8675 222.1875 167.1875 222.1875 C161.54832607 238.5786989 161.93680333 256.15730231 162.26098633 273.27075195 C162.27798584 274.51300537 162.29498535 275.75525879 162.3125 277.03515625 C162.33570313 278.14898682 162.35890625 279.26281738 162.3828125 280.41040039 C162.1875 283.1875 162.1875 283.1875 160.1875 286.1875 C159.5275 286.1875 158.8675 286.1875 158.1875 286.1875 C158.166875 286.765 158.14625 287.3425 158.125 287.9375 C156.63704073 291.50860224 153.59702299 292.76574239 150.1875 294.1875 C146.4375 295.0625 146.4375 295.0625 143.1875 295.1875 C142.1975 294.5275 141.2075 293.8675 140.1875 293.1875 C140.1875 292.5275 140.1875 291.8675 140.1875 291.1875 C139.1975 290.8575 138.2075 290.5275 137.1875 290.1875 C136.8575 289.1975 136.5275 288.2075 136.1875 287.1875 C135.1975 286.8575 134.2075 286.5275 133.1875 286.1875 C131.29037386 281.22141204 130.90120252 276.62361193 130.95703125 271.3203125 C130.95748947 270.60011932 130.95794769 269.87992615 130.9584198 269.13790894 C130.96141902 267.63033378 130.96923457 266.12276107 130.98168945 264.61523438 C131.00011477 262.2980669 131.00219766 259.9812961 131.00195312 257.6640625 C131.0068629 256.19530902 131.01268885 254.72655825 131.01953125 253.2578125 C131.02064407 252.56309845 131.0217569 251.8683844 131.02290344 251.15261841 C131.07139124 246.30360876 131.07139124 246.30360876 132.1875 245.1875 C132.3231928 242.73605977 132.39816043 240.30894859 132.43359375 237.85546875 C132.46659548 236.31835504 132.49980582 234.78124579 132.53320312 233.24414062 C132.58014767 230.82661824 132.62443758 228.40910475 132.66430664 225.99145508 C132.81110458 217.50618251 133.16124047 209.41051801 134.7487793 201.05053711 C135.5716413 195.68064134 135.43736586 190.29501912 135.375 184.875 C135.36782959 183.69744141 135.36065918 182.51988281 135.35327148 181.30664062 C135.66836995 167.05892406 135.66836995 167.05892406 133.1875 153.1875 C133.0538572 151.80405591 132.96422065 150.41601843 132.90625 149.02734375 C132.86886719 148.23392578 132.83148438 147.44050781 132.79296875 146.62304688 C132.72249162 144.95378298 132.65217989 143.2845121 132.58203125 141.61523438 C132.54464844 140.82310547 132.50726563 140.03097656 132.46875 139.21484375 C132.43845703 138.49031006 132.40816406 137.76577637 132.37695312 137.01928711 C132.28642182 135.09132267 132.28642182 135.09132267 131.1875 133.1875 C131.11716231 131.31370395 131.1031978 129.43748898 131.125 127.5625 C131.13402344 126.55960937 131.14304687 125.55671875 131.15234375 124.5234375 C131.16974609 123.36714844 131.16974609 123.36714844 131.1875 122.1875 C130.5275 122.1875 129.8675 122.1875 129.1875 122.1875 C128.8575 118.8875 128.5275 115.5875 128.1875 112.1875 C127.5275 112.1875 126.8675 112.1875 126.1875 112.1875 C126.084375 111.1975 125.98125 110.2075 125.875 109.1875 C125.28215935 104.90684177 123.7528712 101.20301742 122.1875 97.1875 C122.1875 96.5275 122.1875 95.8675 122.1875 95.1875 C121.5275 95.1875 120.8675 95.1875 120.1875 95.1875 C120.1875 93.5375 120.1875 91.8875 120.1875 90.1875 C119.5275 90.1875 118.8675 90.1875 118.1875 90.1875 C118.1875 89.1975 118.1875 88.2075 118.1875 87.1875 C117.5275 87.1875 116.8675 87.1875 116.1875 87.1875 C116.1875 86.1975 116.1875 85.2075 116.1875 84.1875 C115.5275 84.1875 114.8675 84.1875 114.1875 84.1875 C113.8575 83.1975 113.5275 82.2075 113.1875 81.1875 C112.5275 80.8575 111.8675 80.5275 111.1875 80.1875 C111.1875 79.5275 111.1875 78.8675 111.1875 78.1875 C110.5275 78.1875 109.8675 78.1875 109.1875 78.1875 C109.1875 77.1975 109.1875 76.2075 109.1875 75.1875 C108.1975 74.8575 107.2075 74.5275 106.1875 74.1875 C101.1875 68.72238372 101.1875 68.72238372 101.1875 66.1875 C100.65125 65.960625 100.115 65.73375 99.5625 65.5 C96.36289839 63.73179911 93.89712777 61.65079797 91.1875 59.1875 C91.1875 58.5275 91.1875 57.8675 91.1875 57.1875 C90.63449219 56.93742187 90.08148438 56.68734375 89.51171875 56.4296875 C86.77769284 54.96847701 84.46218621 53.19555728 82 51.3125 C77.83665015 48.23039495 73.90374003 45.8985831 69.0625 44.07421875 C67.1875 43.1875 67.1875 43.1875 65.82104492 41.71875 C63.95474635 39.96932171 62.62400196 39.48186521 60.17578125 38.80078125 C59.41845703 38.58486328 58.66113281 38.36894531 57.88085938 38.14648438 C57.09517578 37.93314453 56.30949219 37.71980469 55.5 37.5 C54.70271484 37.27505859 53.90542969 37.05011719 53.08398438 36.81835938 C51.12095841 36.26589099 49.15453739 35.72551131 47.1875 35.1875 C47.1875 34.5275 47.1875 33.8675 47.1875 33.1875 C44.8775 33.1875 42.5675 33.1875 40.1875 33.1875 C40.1875 32.5275 40.1875 31.8675 40.1875 31.1875 C29.80421613 30.25864393 19.42105353 30.0247162 9 29.9375 C7.1135376 29.9055957 7.1135376 29.9055957 5.18896484 29.87304688 C-2.24605209 29.84580882 -8.87941587 30.59595687 -16.06835938 32.52172852 C-19.46003549 33.34460225 -22.34808618 33.42920329 -25.8125 33.1875 C-25.8125 33.8475 -25.8125 34.5075 -25.8125 35.1875 C-27.72655367 35.86163211 -29.64386026 36.5265332 -31.5625 37.1875 C-32.62984375 37.55875 -33.6971875 37.93 -34.796875 38.3125 C-37.8125 39.1875 -37.8125 39.1875 -41.8125 39.1875 C-41.8125 40.1775 -41.8125 41.1675 -41.8125 42.1875 C-42.905625 42.55875 -43.99875 42.93 -45.125 43.3125 C-54.79167954 46.64848756 -54.79167954 46.64848756 -61.8125 53.1875 C-63.79138961 53.91443904 -65.79204558 54.58566251 -67.8125 55.1875 C-67.8125 55.8475 -67.8125 56.5075 -67.8125 57.1875 C-69.54798169 58.63276736 -71.35225963 59.9962222 -73.1875 61.3125 C-74.18523437 62.03695312 -75.18296875 62.76140625 -76.2109375 63.5078125 C-78.8125 65.1875 -78.8125 65.1875 -80.8125 65.1875 C-81.4725 66.8375 -82.1325 68.4875 -82.8125 70.1875 C-83.4725 70.1875 -84.1325 70.1875 -84.8125 70.1875 C-84.8125 70.8475 -84.8125 71.5075 -84.8125 72.1875 C-85.8025 72.1875 -86.7925 72.1875 -87.8125 72.1875 C-87.8125 72.8475 -87.8125 73.5075 -87.8125 74.1875 C-88.4725 74.1875 -89.1325 74.1875 -89.8125 74.1875 C-89.8125 75.1775 -89.8125 76.1675 -89.8125 77.1875 C-90.4725 77.1875 -91.1325 77.1875 -91.8125 77.1875 C-91.8125 77.8475 -91.8125 78.5075 -91.8125 79.1875 C-93.45703125 80.87890625 -93.45703125 80.87890625 -95.625 82.75 C-96.33269531 83.37003906 -97.04039062 83.99007812 -97.76953125 84.62890625 C-99.8125 86.1875 -99.8125 86.1875 -102.8125 87.1875 C-103.3075 88.6725 -103.3075 88.6725 -103.8125 90.1875 C-104.4725 90.1875 -105.1325 90.1875 -105.8125 90.1875 C-105.8125 90.8475 -105.8125 91.5075 -105.8125 92.1875 C-106.4725 92.1875 -107.1325 92.1875 -107.8125 92.1875 C-107.8125 92.8475 -107.8125 93.5075 -107.8125 94.1875 C-108.4725 94.1875 -109.1325 94.1875 -109.8125 94.1875 C-109.8125 95.1775 -109.8125 96.1675 -109.8125 97.1875 C-110.4725 97.1875 -111.1325 97.1875 -111.8125 97.1875 C-112.4725 99.1675 -113.1325 101.1475 -113.8125 103.1875 C-114.4725 103.1875 -115.1325 103.1875 -115.8125 103.1875 C-115.8125 103.8475 -115.8125 104.5075 -115.8125 105.1875 C-116.4725 105.1875 -117.1325 105.1875 -117.8125 105.1875 C-117.8125 105.8475 -117.8125 106.5075 -117.8125 107.1875 C-118.4725 107.1875 -119.1325 107.1875 -119.8125 107.1875 C-120.1425 108.8375 -120.4725 110.4875 -120.8125 112.1875 C-121.4725 112.1875 -122.1325 112.1875 -122.8125 112.1875 C-123.0909375 112.7546875 -123.369375 113.321875 -123.65625 113.90625 C-125.21321793 116.97810564 -126.90753545 119.96646556 -128.59375 122.96875 C-129.71983843 125.01880842 -130.78189726 127.08812404 -131.8125 129.1875 C-132.4725 129.1875 -133.1325 129.1875 -133.8125 129.1875 C-134.4725 131.8275 -135.1325 134.4675 -135.8125 137.1875 C-136.4725 137.1875 -137.1325 137.1875 -137.8125 137.1875 C-137.998125 138.3321875 -137.998125 138.3321875 -138.1875 139.5 C-138.8125 142.1875 -138.8125 142.1875 -140.8125 145.1875 C-141.31117149 146.52733714 -141.76602138 147.88391341 -142.1875 149.25 C-143.28261912 152.68621559 -144.53716616 155.98924397 -145.9375 159.3125 C-147.58166256 163.32877495 -148.43729338 166.8726239 -148.8125 171.1875 C-149.4725 171.1875 -150.1325 171.1875 -150.8125 171.1875 C-150.77125 172.38375 -150.73 173.58 -150.6875 174.8125 C-150.59274365 177.56043418 -150.85655997 179.3086487 -151.80810547 181.92504883 C-152.86883041 185.37047114 -153.07081638 188.12707664 -153.078125 191.72265625 C-153.08070313 192.94404297 -153.08328125 194.16542969 -153.0859375 195.42382812 C-153.07820313 196.68646484 -153.07046875 197.94910156 -153.0625 199.25 C-153.07023437 200.51650391 -153.07796875 201.78300781 -153.0859375 203.08789062 C-153.08207031 204.91803711 -153.08207031 204.91803711 -153.078125 206.78515625 C-153.07586914 207.89383057 -153.07361328 209.00250488 -153.07128906 210.14477539 C-152.80910698 213.22739354 -152.04074409 215.37380303 -150.8125 218.1875 C-150.6171875 221.08203125 -150.6171875 221.08203125 -150.6875 224 C-150.70554688 224.97582031 -150.72359375 225.95164062 -150.7421875 226.95703125 C-150.76539063 227.69308594 -150.78859375 228.42914063 -150.8125 229.1875 C-150.1525 229.1875 -149.4925 229.1875 -148.8125 229.1875 C-148.8125 231.8275 -148.8125 234.4675 -148.8125 237.1875 C-148.1525 237.1875 -147.4925 237.1875 -146.8125 237.1875 C-145.64095707 239.47679053 -144.47511926 241.76868362 -143.3125 244.0625 C-142.97863281 244.71347656 -142.64476562 245.36445313 -142.30078125 246.03515625 C-139.8125 250.9609375 -139.8125 250.9609375 -139.8125 253.1875 C-139.1525 253.1875 -138.4925 253.1875 -137.8125 253.1875 C-137.8125 254.1775 -137.8125 255.1675 -137.8125 256.1875 C-137.1525 256.1875 -136.4925 256.1875 -135.8125 256.1875 C-135.27625 256.88875 -134.74 257.59 -134.1875 258.3125 C-131.56708679 261.48457915 -128.7844035 263.52992441 -125.421875 265.85546875 C-124.62523437 266.51482422 -124.62523437 266.51482422 -123.8125 267.1875 C-123.8125 267.8475 -123.8125 268.5075 -123.8125 269.1875 C-122.8225 269.1875 -121.8325 269.1875 -120.8125 269.1875 C-120.1525 270.1775 -119.4925 271.1675 -118.8125 272.1875 C-117.1632256 273.17706464 -115.50828574 274.15940291 -113.81640625 275.07421875 C-111.02415526 276.6254693 -108.37469132 278.38182221 -105.70703125 280.13671875 C-103.74768788 281.22344734 -102.00031881 281.74605541 -99.8125 282.1875 C-99.8125 282.8475 -99.8125 283.5075 -99.8125 284.1875 C-95.3575 285.6725 -95.3575 285.6725 -90.8125 287.1875 C-90.8125 287.8475 -90.8125 288.5075 -90.8125 289.1875 C-89.575 289.0946875 -89.575 289.0946875 -88.3125 289 C-84.76956018 289.18980035 -82.3688138 289.91446254 -79.1328125 291.23828125 C-77.98425781 291.70814453 -77.98425781 291.70814453 -76.8125 292.1875 C-75.05873047 292.93 -75.05873047 292.93 -73.26953125 293.6875 C-68.09762437 295.61347784 -62.83044958 296.2246109 -57.375 296.875 C-56.38951172 297.00455078 -55.40402344 297.13410156 -54.38867188 297.26757812 C-47.11379532 298.17874557 -39.97195073 299.05795477 -32.8125 297.1875 C-30.56515303 296.98822786 -28.31445993 296.82517441 -26.0625 296.6875 C-17.44557394 296.09937475 -9.95674346 295.1327018 -1.8125 292.1875 C7.71051496 288.75424338 7.71051496 288.75424338 12.1875 289.1875 C12.1875 288.5275 12.1875 287.8675 12.1875 287.1875 C13.93302473 286.34483289 15.6841208 285.51369962 17.4375 284.6875 C18.89929688 283.99140625 18.89929688 283.99140625 20.390625 283.28125 C23.1875 282.1875 23.1875 282.1875 27.1875 282.1875 C27.1875 281.5275 27.1875 280.8675 27.1875 280.1875 C28.156875 279.81625 29.12625 279.445 30.125 279.0625 C34.87296772 277.04147097 38.96785508 274.12326071 43.1875 271.1875 C46.1875 269.1875 46.1875 269.1875 50.1875 269.1875 C50.1875 268.5275 50.1875 267.8675 50.1875 267.1875 C56.39599577 263.29540612 61.21581355 261.39838949 68.5703125 262.4609375 C72.01682639 263.41773091 74.6539493 264.93423424 77.53125 267.03125 C79.30027841 268.38273456 79.30027841 268.38273456 82.1875 269.1875 C82.1875 269.8475 82.1875 270.5075 82.1875 271.1875 C83.8375 271.8475 85.4875 272.5075 87.1875 273.1875 C87.1875 273.8475 87.1875 274.5075 87.1875 275.1875 C88.1775 275.5175 89.1675 275.8475 90.1875 276.1875 C90.1875 277.1775 90.1875 278.1675 90.1875 279.1875 C90.8475 279.1875 91.5075 279.1875 92.1875 279.1875 C94.42694458 280.84937493 95.11832193 281.74193374 95.55078125 284.52734375 C95.53402344 285.38457031 95.51726562 286.24179687 95.5 287.125 C95.49613281 287.97964844 95.49226563 288.83429688 95.48828125 289.71484375 C94.95089725 294.13255898 93.1439004 296.64335331 89.75 299.4375 C84.74262037 303.02718231 80.15021922 303.09355719 74.1875 302.1875 C71.34454607 301.39505458 68.88833409 300.41051921 66.1875 299.1875 C66.1875 298.5275 66.1875 297.8675 66.1875 297.1875 C64.74956608 297.49799726 63.3121682 297.8109776 61.875 298.125 C61.07449219 298.29902344 60.27398437 298.47304688 59.44921875 298.65234375 C57.042099 299.18636159 57.042099 299.18636159 54.1875 300.1875 C53.8575 301.1775 53.5275 302.1675 53.1875 303.1875 C51.2265625 304.50390625 51.2265625 304.50390625 48.8125 305.75 C46.15098656 307.14144269 43.69373345 308.5166777 41.1875 310.1875 C39.8675 310.1875 38.5475 310.1875 37.1875 310.1875 C37.1875 310.8475 37.1875 311.5075 37.1875 312.1875 C36.1975 312.1875 35.2075 312.1875 34.1875 312.1875 C34.1875 312.8475 34.1875 313.5075 34.1875 314.1875 C32.5375 314.1875 30.8875 314.1875 29.1875 314.1875 C29.1875 314.8475 29.1875 315.5075 29.1875 316.1875 C28.27226562 316.38085938 27.35703125 316.57421875 26.4140625 316.7734375 C24.63128906 317.16402344 24.63128906 317.16402344 22.8125 317.5625 C21.62914062 317.81773437 20.44578125 318.07296875 19.2265625 318.3359375 C16.10553033 318.94273965 16.10553033 318.94273965 14.1875 321.1875 C12.26455363 321.59651666 10.32248135 321.91855066 8.375 322.1875 C5.23102544 322.62492255 2.51868266 323.05403833 -0.4296875 324.2421875 C-2.87939467 325.21403854 -4.51509709 325.40097129 -7.125 325.3125 C-8.341875 325.27125 -9.55875 325.23 -10.8125 325.1875 C-10.8125 325.8475 -10.8125 326.5075 -10.8125 327.1875 C-11.71871094 327.16429687 -12.62492188 327.14109375 -13.55859375 327.1171875 C-14.77675781 327.09914063 -15.99492187 327.08109375 -17.25 327.0625 C-19.04244141 327.02769531 -19.04244141 327.02769531 -20.87109375 326.9921875 C-23.92454319 327.14349818 -26.21883412 327.46152218 -29.125 328.1875 C-34.23660933 329.41856822 -39.14114402 329.41233878 -44.375 329.3125 C-45.28830078 329.30347656 -46.20160156 329.29445313 -47.14257812 329.28515625 C-49.36617319 329.26187253 -51.58918677 329.2291771 -53.8125 329.1875 C-53.8125 328.5275 -53.8125 327.8675 -53.8125 327.1875 C-55.57013672 327.23970703 -55.57013672 327.23970703 -57.36328125 327.29296875 C-66.21042815 327.47475299 -74.4499651 327.55695561 -82.8125 324.1875 C-83.1425 323.8575 -83.4725 323.5275 -83.8125 323.1875 C-85.11853242 322.88702329 -86.43293324 322.62267336 -87.75 322.375 C-93.04567697 321.24682716 -97.84972324 319.31790252 -102.8125 317.1875 C-103.534375 316.88199219 -104.25625 316.57648438 -105 316.26171875 C-106.60742251 315.57791603 -108.21054022 314.88400425 -109.8125 314.1875 C-109.8125 313.5275 -109.8125 312.8675 -109.8125 312.1875 C-110.8953125 312.2803125 -110.8953125 312.2803125 -112 312.375 C-115.41969171 312.14702055 -116.93592297 311.01572451 -119.8125 309.1875 C-121.05 308.445 -121.05 308.445 -122.3125 307.6875 C-124.8125 306.1875 -127.3125 304.6875 -129.8125 303.1875 C-130.740625 302.671875 -131.66875 302.15625 -132.625 301.625 C-133.346875 301.150625 -134.06875 300.67625 -134.8125 300.1875 C-134.8125 299.5275 -134.8125 298.8675 -134.8125 298.1875 C-136.1428125 297.81625 -136.1428125 297.81625 -137.5 297.4375 C-140.94406256 296.13785375 -143.14274803 294.70020773 -145.8125 292.1875 C-145.8125 291.5275 -145.8125 290.8675 -145.8125 290.1875 C-146.6478125 290.0946875 -146.6478125 290.0946875 -147.5 290 C-150.81158299 288.83647084 -152.42748695 286.74287113 -154.8125 284.1875 C-155.85306332 283.18635195 -156.8947508 282.18637114 -157.9375 281.1875 C-160.40373437 278.73388064 -162.090479 276.221537 -163.8125 273.1875 C-164.555 272.4759375 -164.555 272.4759375 -165.3125 271.75 C-167.79906856 269.15982442 -169.8125 265.8315027 -169.8125 262.1875 C-170.4725 262.1875 -171.1325 262.1875 -171.8125 262.1875 C-172.15023437 261.15109375 -172.48796875 260.1146875 -172.8359375 259.046875 C-173.28629737 257.6770304 -173.73682714 256.30724166 -174.1875 254.9375 C-174.40921875 254.25558594 -174.6309375 253.57367188 -174.859375 252.87109375 C-175.9707699 249.50422097 -177.14970633 246.31873484 -178.8125 243.1875 C-180.84659169 237.56383473 -181.22347156 232.1316469 -181.56640625 226.17578125 C-181.71367632 223.33768227 -181.71367632 223.33768227 -182.31958008 221.24584961 C-183.16879942 217.69965434 -182.95764016 214.0648483 -182.9375 210.4375 C-182.93484131 209.56786621 -182.93218262 208.69823242 -182.92944336 207.80224609 C-182.642389 166.677167 -182.642389 166.677167 -179.8125 158.1875 C-179.1525 158.1875 -178.4925 158.1875 -177.8125 158.1875 C-177.85375 157.094375 -177.895 156.00125 -177.9375 154.875 C-177.8125 151.1875 -177.8125 151.1875 -175.8125 148.1875 C-175.29522473 146.21538803 -174.78110294 144.24205306 -174.3125 142.2578125 C-173.64438024 139.49137912 -172.84725689 136.83906453 -171.8125 134.1875 C-171.1525 133.8575 -170.4925 133.5275 -169.8125 133.1875 C-168.95225554 131.19489293 -168.17355939 129.16674436 -167.4375 127.125 C-165.51316147 121.94013537 -163.39818793 117.07157721 -160.8125 112.1875 C-160.1525 112.1875 -159.4925 112.1875 -158.8125 112.1875 C-158.544375 111.115 -158.27625 110.0425 -158 108.9375 C-156.95132569 105.62589693 -156.18497839 103.65883166 -153.8125 101.1875 C-153.1525 101.1875 -152.4925 101.1875 -151.8125 101.1875 C-151.52375 100.424375 -151.235 99.66125 -150.9375 98.875 C-149.8125 96.1875 -149.8125 96.1875 -147.8125 93.1875 C-147.1525 93.1875 -146.4925 93.1875 -145.8125 93.1875 C-145.544375 92.053125 -145.27625 90.91875 -145 89.75 C-144.608125 88.574375 -144.21625 87.39875 -143.8125 86.1875 C-142.8225 85.8575 -141.8325 85.5275 -140.8125 85.1875 C-139.59380071 82.68302484 -139.59380071 82.68302484 -138.8125 80.1875 C-138.1525 80.1875 -137.4925 80.1875 -136.8125 80.1875 C-136.8125 79.5275 -136.8125 78.8675 -136.8125 78.1875 C-136.1525 78.1875 -135.4925 78.1875 -134.8125 78.1875 C-134.8125 77.5275 -134.8125 76.8675 -134.8125 76.1875 C-134.1525 76.1875 -133.4925 76.1875 -132.8125 76.1875 C-132.8125 75.1975 -132.8125 74.2075 -132.8125 73.1875 C-132.1525 73.1875 -131.4925 73.1875 -130.8125 73.1875 C-130.544375 72.589375 -130.27625 71.99125 -130 71.375 C-128.81941239 69.20023336 -127.54433488 67.91933488 -125.8125 66.1875 C-125.3175 64.7025 -125.3175 64.7025 -124.8125 63.1875 C-123.34460559 61.94794472 -121.87262134 60.71217791 -120.36328125 59.5234375 C-118.58224769 58.07939519 -118.58224769 58.07939519 -116.6875 55.4375 C-114.59146898 52.92226277 -113.83858924 52.89358749 -110.8125 52.1875 C-110.10855388 50.87346724 -109.44904342 49.5354743 -108.8125 48.1875 C-105.6825059 44.69979229 -102.3225015 42.0019354 -98.4609375 39.3984375 C-96.76416676 38.21597103 -96.76416676 38.21597103 -95.2890625 36.6640625 C-93.07381834 34.44881834 -90.41367142 32.92161428 -87.8125 31.1875 C-87.33039063 30.70023438 -86.84828125 30.21296875 -86.3515625 29.7109375 C-80.31549959 23.73615442 -71.19384716 19.81571404 -63.625 16.125 C-61.19422293 14.93587723 -59.18081495 13.74806693 -56.9375 12.1875 C-47.63123449 6.23149007 -36.77364633 4.12362989 -25.94921875 2.66796875 C-22.95349252 2.5257898 -22.95349252 2.5257898 -21.8125 1.1875 C-14.57158598 -0.05910425 -7.33112004 -0.00469552 0 0 Z " fill="#5F1EC0" transform="translate(318.8125,153.8125)"/>
<path d="M0 0 C0.95777344 0.36222656 1.91554688 0.72445312 2.90234375 1.09765625 C3.61519531 1.37480469 4.32804687 1.65195313 5.0625 1.9375 C5.0625 2.5975 5.0625 3.2575 5.0625 3.9375 C5.805 3.855 6.5475 3.7725 7.3125 3.6875 C10.91272511 4.01479319 11.66681477 5.31721928 14.0625 7.9375 C14.97 8.47375 15.8775 9.01 16.8125 9.5625 C17.555 10.01625 18.2975 10.47 19.0625 10.9375 C19.0625 11.5975 19.0625 12.2575 19.0625 12.9375 C21.0425 13.4325 21.0425 13.4325 23.0625 13.9375 C23.5575 15.9175 23.5575 15.9175 24.0625 17.9375 C26.0425 18.4325 26.0425 18.4325 28.0625 18.9375 C28.0625 20.2575 28.0625 21.5775 28.0625 22.9375 C29.5475 23.4325 29.5475 23.4325 31.0625 23.9375 C37.61013499 35.66504179 37.96925672 54.70265641 34.5625 67.3125 C34.08085733 68.86000006 33.5881392 70.40438567 33.0625 71.9375 C32.4025 71.9375 31.7425 71.9375 31.0625 71.9375 C29.98724806 74.58978812 28.96793849 77.22118454 28.0625 79.9375 C27.4025 79.9375 26.7425 79.9375 26.0625 79.9375 C26.0625 80.5975 26.0625 81.2575 26.0625 81.9375 C25.4025 81.9375 24.7425 81.9375 24.0625 81.9375 C23.835625 82.494375 23.60875 83.05125 23.375 83.625 C17.22722532 94.45679349 4.61170325 100.83713671 -6.83203125 104.08984375 C-7.85683594 104.36957031 -8.88164062 104.64929688 -9.9375 104.9375 C-11.05705078 105.27974609 -11.05705078 105.27974609 -12.19921875 105.62890625 C-19.51363296 107.75053147 -26.53026422 107.54744917 -33.77734375 105.44921875 C-38.08464927 104.42886247 -42.53115019 104.24529649 -46.9375 103.9375 C-46.9375 103.2775 -46.9375 102.6175 -46.9375 101.9375 C-47.65679687 101.99808594 -48.37609375 102.05867188 -49.1171875 102.12109375 C-52.53572749 101.89855721 -54.20751051 100.85530663 -57.0625 99 C-59.75232576 97.2708263 -61.89307063 95.95230979 -64.9375 94.9375 C-64.9375 94.2775 -64.9375 93.6175 -64.9375 92.9375 C-65.49050781 92.72996094 -66.04351562 92.52242188 -66.61328125 92.30859375 C-69.78497374 90.43756171 -71.83893488 87.82317293 -74.125 85 C-74.57552734 84.46181641 -75.02605469 83.92363281 -75.49023438 83.36914062 C-77.51905349 80.90231559 -78.91856802 78.99429593 -79.9375 75.9375 C-80.5975 75.6075 -81.2575 75.2775 -81.9375 74.9375 C-85.8104105 67.34194434 -86.51380438 60.07871415 -86.3125 51.6875 C-86.31121094 50.65109375 -86.30992187 49.6146875 -86.30859375 48.546875 C-86.24463384 42.97525649 -85.79525763 38.19866961 -83.9375 32.9375 C-83.2775 32.9375 -82.6175 32.9375 -81.9375 32.9375 C-82.040625 32.256875 -82.14375 31.57625 -82.25 30.875 C-81.85739818 27.18454286 -80.44797325 25.50050712 -78.21875 22.62109375 C-76.82525029 20.88079626 -76.82525029 20.88079626 -75.625 18.5 C-72.1124233 13.16608723 -67.66373528 8.74856095 -61.9375 5.9375 C-61.4425 5.43605469 -60.9475 4.93460938 -60.4375 4.41796875 C-58.69616213 2.69930455 -57.2302297 2.07069302 -54.9375 1.25 C-53.9165625 0.87294922 -53.9165625 0.87294922 -52.875 0.48828125 C-50.9375 -0.0625 -50.9375 -0.0625 -47.9375 -0.0625 C-47.9375 -0.7225 -47.9375 -1.3825 -47.9375 -2.0625 C-43.08136526 -2.23106005 -38.22505291 -2.39151217 -33.3684082 -2.54467773 C-31.71859656 -2.59782451 -30.0688529 -2.6531298 -28.41918945 -2.71069336 C-26.03872331 -2.7933734 -23.65811524 -2.86811351 -21.27734375 -2.94140625 C-20.54789047 -2.96844131 -19.81843719 -2.99547638 -19.06687927 -3.02333069 C-12.33973356 -3.21640565 -6.32240193 -2.41968469 0 0 Z " fill="#5521CC" transform="translate(376.9375,201.0625)"/>
<path d="M0 0 C1.99609375 0.05078125 1.99609375 0.05078125 4.4375 0.3125 C5.64212891 0.43044922 5.64212891 0.43044922 6.87109375 0.55078125 C9 1 9 1 11 3 C12.134375 2.938125 13.26875 2.87625 14.4375 2.8125 C20.24912507 2.62055642 24.94684957 5.40536889 30 8 C30.99 8.495 30.99 8.495 32 9 C32 9.66 32 10.32 32 11 C32.66 11 33.32 11 34 11 C35.7265625 13.01171875 35.7265625 13.01171875 37.625 15.6875 C38.25664062 16.55761719 38.88828125 17.42773438 39.5390625 18.32421875 C41.10801583 21.19783648 41.31287051 22.78438641 41 26 C41.66 26 42.32 26 43 26 C44.64194999 36.2248704 43.96613726 42.4661581 38 51 C37.34 51.99 36.68 52.98 36 54 C35.34 54 34.68 54 34 54 C33.75507813 54.75152344 33.51015625 55.50304687 33.2578125 56.27734375 C30.78690239 61.62586656 25.55050697 64.65817897 20.14208984 66.70214844 C9.43584006 70.13937629 -1.17536751 71.74698817 -12 68 C-13.60875 67.7215625 -13.60875 67.7215625 -15.25 67.4375 C-21.00753432 65.84330857 -25.80391689 61.0670896 -30 57 C-30 56.34 -30 55.68 -30 55 C-30.66 55 -31.32 55 -32 55 C-32 54.01 -32 53.02 -32 52 C-32.99 51.67 -33.98 51.34 -35 51 C-35.33 48.69 -35.66 46.38 -36 44 C-36.66 44 -37.32 44 -38 44 C-38 39.38 -38 34.76 -38 30 C-37.34 30 -36.68 30 -36 30 C-35.87625 28.948125 -35.7525 27.89625 -35.625 26.8125 C-35.08859218 23.54041229 -34.36119965 20.99463924 -33 18 C-32.34 18 -31.68 18 -31 18 C-30.8453125 17.1028125 -30.8453125 17.1028125 -30.6875 16.1875 C-29.89496146 13.66578648 -29.08408591 12.60314301 -27 11 C-26.01 11 -25.02 11 -24 11 C-23.67 10.01 -23.34 9.02 -23 8 C-22.01 8 -21.02 8 -20 8 C-20 7.34 -20 6.68 -20 6 C-14.57936694 3.28968347 -9.46935088 2.27730273 -3.4765625 1.4296875 C-1.06399336 1.25593336 -1.06399336 1.25593336 0 0 Z " fill="#010002" transform="translate(350,216)"/>
<path d="M0 0 C30 0 30 0 40 5 C44.69323213 10.51454776 46.50577772 16.4655508 46.3125 23.62890625 C45.57175752 29.24928982 43.29956249 34.1899283 39.0625 38 C36.11769623 39.92313716 34.38351957 40.45039276 31 41 C31.32871094 41.50144531 31.65742188 42.00289062 31.99609375 42.51953125 C37.90674612 51.92211375 43.47777344 62.43332032 47 73 C43.04 73 39.08 73 35 73 C31.64940908 66.49985362 28.5026441 60.02361769 25.87890625 53.1953125 C25.10176046 51.25417502 24.1850904 49.3701808 23.25 47.5 C22 45 22 45 22 43 C18.04 43 14.08 43 10 43 C10 52.9 10 62.8 10 73 C6.7 73 3.4 73 0 73 C0 48.91 0 24.82 0 0 Z " fill="#781792" transform="translate(423,559)"/>
<path d="M0 0 C4.52619971 3.54224325 6.88986557 6.92519058 7.625 12.625 C7.7075 13.82125 7.79 15.0175 7.875 16.25 C4.75090637 16.7400539 1.97680988 16.94685931 -1.125 16.25 C-2.80453171 14.37364817 -3.79929502 12.462832 -4.9609375 10.234375 C-6.7899035 7.11654034 -8.7138529 6.25327856 -12.125 5.25 C-16.4430375 5.06299838 -19.37371785 5.78644293 -23.0625 8.0625 C-27.03844956 12.2794162 -26.28543899 17.46969412 -26.29296875 22.99609375 C-26.29629715 23.84422134 -26.29962555 24.69234894 -26.30305481 25.56617737 C-26.30811016 27.35734516 -26.31046357 29.14852234 -26.31030273 30.93969727 C-26.31248932 33.67414917 -26.33065993 36.40819755 -26.34960938 39.14257812 C-26.3525436 40.88541529 -26.3545282 42.62825437 -26.35546875 44.37109375 C-26.36265427 45.1858165 -26.36983978 46.00053925 -26.37724304 46.83995056 C-26.35687976 51.91994076 -26.12157147 56.09984611 -22.5 60 C-17.88519394 62.42884529 -13.82837442 62.75099248 -8.9375 61.3125 C-6.07748282 59.21515407 -5.39547365 58.09922497 -3.8125 55.0625 C-2.625 52.92578125 -2.625 52.92578125 -1.125 51.25 C1.97680988 50.55314069 4.75090637 50.7599461 7.875 51.25 C7.49897219 57.26644494 5.8115219 61.61879776 1.875 66.25 C-5.17627036 71.73957961 -12.76728926 71.84141495 -21.30859375 71.046875 C-26.21597242 70.16679929 -29.08483764 67.96446049 -32.58203125 64.4921875 C-36.811336 58.34631174 -37.5780162 52.27398451 -37.5234375 45.03515625 C-37.52630768 44.1799791 -37.52917786 43.32480194 -37.53213501 42.44371033 C-37.53416439 40.64614189 -37.52871389 38.84855081 -37.51611328 37.05102539 C-37.50006308 34.32321991 -37.51598994 31.5969003 -37.53515625 28.86914062 C-37.53317323 27.11197594 -37.52932834 25.35481218 -37.5234375 23.59765625 C-37.52951019 22.79425308 -37.53558289 21.99084991 -37.5418396 21.1631012 C-37.46202361 14.6274976 -36.40586011 8.16308146 -32.29296875 2.91015625 C-22.40798524 -5.06412039 -11.29541282 -6.32543118 0 0 Z " fill="#7D118A" transform="translate(520.125,561.75)"/>
<path d="M0 0 C3.42947667 2.70161451 5.40409816 5.02479449 6.8125 9.25 C7 12.625 7 12.625 6.8125 15.25 C3.8425 15.25 0.8725 15.25 -2.1875 15.25 C-2.72375 13.991875 -3.26 12.73375 -3.8125 11.4375 C-5.31447473 8.48588415 -6.17981867 7.25589498 -8.875 5.1875 C-13.25922724 3.94668097 -16.81477233 3.9293235 -21.1875 5.25 C-24.08651395 7.42426046 -25.79223937 8.86682505 -26.79760742 12.38500977 C-27.31707902 16.20216645 -27.38966688 19.99431554 -27.42578125 23.83984375 C-27.433853 24.66198868 -27.44192474 25.48413361 -27.45024109 26.33119202 C-27.46402955 28.0650932 -27.47477496 29.79902093 -27.48266602 31.53295898 C-27.49421084 33.30094388 -27.51470207 35.06889325 -27.54418945 36.83666992 C-27.58691543 39.40046706 -27.60303818 41.9632346 -27.61328125 44.52734375 C-27.63078934 45.31189438 -27.64829742 46.09644501 -27.66633606 46.9047699 C-27.64578937 52.13137475 -26.67483926 55.12089207 -23.1875 59.25 C-18.61258958 61.58828755 -15.13198523 61.41869651 -10.1875 60.25 C-6.41685194 58.70746216 -4.95840349 57.20801037 -3.375 53.5625 C-2.983125 52.469375 -2.59125 51.37625 -2.1875 50.25 C0.7825 50.25 3.7525 50.25 6.8125 50.25 C7.45717043 55.40736346 6.04735335 58.27361356 3.2421875 62.41796875 C0.38990087 66.07294806 -2.5334811 68.56051572 -7.1875 69.25 C-7.1875 69.91 -7.1875 70.57 -7.1875 71.25 C-15.76860161 71.86391029 -24.23035338 71.93149107 -31.1875 66.25 C-36.45604567 59.38437015 -38.07131692 53.75081517 -37.87890625 45.203125 C-37.87753159 44.18829041 -37.87615692 43.17345581 -37.8747406 42.12786865 C-37.86573989 40.00001387 -37.84228254 37.87217489 -37.80493164 35.74462891 C-37.74990525 32.49440364 -37.7434053 29.24673807 -37.74414062 25.99609375 C-37.72940037 23.91924875 -37.71191769 21.84242102 -37.69140625 19.765625 C-37.68806778 18.79989563 -37.68472931 17.83416626 -37.68128967 16.83917236 C-37.55199701 10.7037405 -36.75691086 6.22644624 -32.609375 1.421875 C-23.00008855 -6.7505088 -10.31663588 -7.15236825 0 0 Z " fill="#6C1FA4" transform="translate(339.1875,562.75)"/>
<path d="M0 0 C13.86 0 27.72 0 42 0 C42 2.97 42 5.94 42 9 C36.72 9 31.44 9 26 9 C26 27.48 26 45.96 26 65 C31.28 65 36.56 65 42 65 C42 67.64 42 70.28 42 73 C28.14 73 14.28 73 0 73 C0 70.36 0 67.72 0 65 C5.28 65 10.56 65 16 65 C16 46.52 16 28.04 16 9 C10.72 9 5.44 9 0 9 C0 6.03 0 3.06 0 0 Z " fill="#731C9B" transform="translate(363,559)"/>
<path d="M0 0 C17.49 0 34.98 0 53 0 C53 3.3 53 6.6 53 10 C46.07 10 39.14 10 32 10 C32 31.12 32 52.24 32 74 C28.7 74 25.4 74 22 74 C22 52.88 22 31.76 22 10 C14.74 10 7.48 10 0 10 C0 6.7 0 3.4 0 0 Z " fill="#6120A9" transform="translate(236,558)"/>
<path d="M0 0 C0.33 2.97 0.66 5.94 1 9 C0.34 9 -0.32 9 -1 9 C-0.938125 9.721875 -0.87625 10.44375 -0.8125 11.1875 C-1.03746621 14.56199315 -1.99869763 16.30593911 -4 19 C-4.66 19 -5.32 19 -6 19 C-6.33 20.65 -6.66 22.3 -7 24 C-7.66 24 -8.32 24 -9 24 C-8.87625 25.5159375 -8.87625 25.5159375 -8.75 27.0625 C-9.00343357 31.05407871 -9.87279926 32.64214851 -11.9921875 35.91015625 C-13.29940181 38.62085258 -13.59921163 41.1482355 -14 44.125 C-14.52084843 47.58864205 -15.02169142 50.04699809 -16.5 53.25 C-20.41338398 55.98936878 -24.37368689 55.39729788 -29 55 C-31.97604496 49.64791914 -31.96162555 44.72526097 -30.43457031 38.80957031 C-26.08163339 24.08163339 -26.08163339 24.08163339 -23 21 C-21.96604537 18.4050331 -20.99282171 15.81911531 -20.0625 13.1875 C-16.57091144 3.31996712 -16.57091144 3.31996712 -14 0 C-11.9140625 -0.7421875 -11.9140625 -0.7421875 -9.625 -0.875 C-8.83480469 -0.92269531 -8.04460937 -0.97039062 -7.23046875 -1.01953125 C-4.70911772 -0.99745287 -2.42361543 -0.70363029 0 0 Z " fill="#5221CD" transform="translate(253,363)"/>
<path d="M0 0 C0.99 0.66 1.98 1.32 3 2 C3.29296875 4.3828125 3.29296875 4.3828125 3.1875 7.125 C3.14689453 8.49011719 3.14689453 8.49011719 3.10546875 9.8828125 C3.07066406 10.58148438 3.03585938 11.28015625 3 12 C2.34 12 1.68 12 1 12 C0.731875 12.70125 0.46375 13.4025 0.1875 14.125 C-1.47334611 18.14599586 -3.45353333 21.975375 -5.5 25.8125 C-7.36386408 29.77321117 -8.69284012 33.82821316 -10 38 C-10.66 38 -11.32 38 -12 38 C-12.18175781 39.04800781 -12.36351562 40.09601563 -12.55078125 41.17578125 C-12.80407058 42.55480095 -13.05801096 43.93370119 -13.3125 45.3125 C-13.43044922 46.00279297 -13.54839844 46.69308594 -13.66992188 47.40429688 C-14.20333948 50.23551338 -14.69928535 52.56793872 -16.359375 54.953125 C-19.34182735 56.85621364 -22.64564543 56.58718078 -26 56 C-28.5 54.5 -28.5 54.5 -30 52 C-30.67270703 47.7136488 -30.46220488 44.69330732 -28 41 C-27.34 41 -26.68 41 -26 41 C-26.1546875 39.6078125 -26.1546875 39.6078125 -26.3125 38.1875 C-26.30120826 32.56421518 -23.47642773 27.91406025 -21 23 C-20.49597656 21.9790625 -19.99195313 20.958125 -19.47265625 19.90625 C-18.46112867 17.86775167 -17.44049479 15.83374294 -16.41015625 13.8046875 C-15.53904747 12.07212211 -14.68822387 10.32898009 -13.87109375 8.5703125 C-10.50290542 1.3584269 -8.10659702 -0.73696337 0 0 Z " fill="#4E1FD1" transform="translate(228,352)"/>
<path d="M0 0 C0.66 0.66 1.32 1.32 2 2 C1.8819058 7.90470983 -0.25829223 12.51228196 -4 17 C-4.66 17 -5.32 17 -6 17 C-6.103125 17.556875 -6.20625 18.11375 -6.3125 18.6875 C-7 21 -7 21 -8.41015625 23.26171875 C-12.26361779 29.89876184 -14.09117711 37.50232816 -14.375 45.125 C-14.54296875 47.80859375 -14.54296875 47.80859375 -15 50 C-18.79568267 53.08950915 -22.19304207 53.44715888 -27 53 C-28.85290352 51.14709648 -28.21658627 48.23375369 -28.25 45.75 C-28.27578125 44.61046875 -28.3015625 43.4709375 -28.328125 42.296875 C-27.96918363 38.69036885 -26.97494782 36.97761364 -25 34 C-24.58565749 31.67968195 -24.25110098 29.34360915 -24 27 C-23.42018984 22.9413289 -22.19832214 20.45450622 -20 17 C-19.20666966 15.50087923 -18.41515471 14.000797 -17.625 12.5 C-15.53442839 8.70926474 -13.24784689 5.90596827 -10 3 C-9.54625 2.401875 -9.0925 1.80375 -8.625 1.1875 C-5.8858216 -0.81420729 -3.2562338 -0.29602125 0 0 Z " fill="#4A1ED5" transform="translate(211,340)"/>
<path d="M0 0 C2.866875 -0.061875 5.73375 -0.12375 8.6875 -0.1875 C10.02880981 -0.22846802 10.02880981 -0.22846802 11.3972168 -0.27026367 C16.08022914 -0.31910523 19.2414822 -0.11646774 23 3 C26.2337172 8.49731924 26.35795814 11.98618538 25 18 C23.30187219 21.55063088 22.30978137 22.79347909 19 25 C16.9152832 25.22705078 16.9152832 25.22705078 14.55078125 25.1953125 C13.78677002 25.19031738 13.02275879 25.18532227 12.2355957 25.18017578 C10.78866333 25.15286377 10.78866333 25.15286377 9.3125 25.125 C6.239375 25.08375 3.16625 25.0425 0 25 C0 16.75 0 8.5 0 0 Z " fill="#000001" transform="translate(433,568)"/>
<path d="M0 0 C62.37 0 124.74 0 189 0 C189 0.99 189 1.98 189 3 C126.63 3 64.26 3 0 3 C0 2.01 0 1.02 0 0 Z " fill="#5820B6" transform="translate(134,518)"/>
<path d="M0 0 C62.04 0 124.08 0 188 0 C188 0.99 188 1.98 188 3 C125.96 3 63.92 3 0 3 C0 2.01 0 1.02 0 0 Z " fill="#751388" transform="translate(428,519)"/>
<path d="M0 0 C1.32 0 2.64 0 4 0 C4 7.92 4 15.84 4 24 C-7 25 -7 25 -9.66015625 23.44140625 C-11.32533251 20.40719294 -11.50167691 18.39021751 -11.4375 14.9375 C-11.43621094 13.89464844 -11.43492187 12.85179687 -11.43359375 11.77734375 C-11 9 -11 9 -9.703125 7.140625 C-6.94597157 5.29409105 -4.21145694 5.81821942 -1 6 C-0.67 4.02 -0.34 2.04 0 0 Z " fill="#601A8A" transform="translate(408,508)"/>
<path d="M0 0 C2.04126419 1.52857458 2.86655257 2.50972574 3.5390625 4.98046875 C3.73820821 10.09489278 2.92139876 12.67013947 -0.5 16.5625 C-1.64601933 17.72898396 -2.80626426 18.88239537 -4 20 C-1.36 20.33 1.28 20.66 4 21 C4 21.99 4 22.98 4 24 C-0.95 24 -5.9 24 -11 24 C-11 22.68 -11 21.36 -11 20 C-9.56385143 18.72705014 -8.11853077 17.46062693 -6.6015625 16.28515625 C-4.28437874 14.42575758 -2.61700087 12.48769365 -1 10 C-0.66407492 7.2895393 -0.66407492 7.2895393 -1 5 C-3.475 4.01 -3.475 4.01 -6 3 C-6 3.66 -6 4.32 -6 5 C-6.66 5 -7.32 5 -8 5 C-8 5.66 -8 6.32 -8 7 C-8.99 7 -9.98 7 -11 7 C-10.6875 4.625 -10.6875 4.625 -10 2 C-6.30513897 -0.46324069 -4.36706908 -0.38991688 0 0 Z " fill="#611D97" transform="translate(369,508)"/>
<path d="M0 0 C10.625 -0.25 10.625 -0.25 14 2 C14.22107787 4.7885289 14.28107535 7.34653181 14.1875 10.125 C14.17396484 10.87910156 14.16042969 11.63320313 14.14648438 12.41015625 C14.11109985 14.27374127 14.05729167 16.13695978 14 18 C12.68 18 11.36 18 10 18 C9.67 13.38 9.34 8.76 9 4 C7.68 4 6.36 4 5 4 C4.67 8.95 4.34 13.9 4 19 C2.68 19 1.36 19 0 19 C0 12.73 0 6.46 0 0 Z " fill="#651C95" transform="translate(378,514)"/>
<path d="M0 0 C1.1446875 0.1546875 1.1446875 0.1546875 2.3125 0.3125 C2.3125 0.9725 2.3125 1.6325 2.3125 2.3125 C1.6525 2.3125 0.9925 2.3125 0.3125 2.3125 C0.085625 2.951875 -0.14125 3.59125 -0.375 4.25 C-2.17315826 8.44570261 -4.42654021 12.35150556 -6.6875 16.3125 C-4.7075 16.3125 -2.7275 16.3125 -0.6875 16.3125 C-0.6875 14.6625 -0.6875 13.0125 -0.6875 11.3125 C0.6325 11.3125 1.9525 11.3125 3.3125 11.3125 C3.3125 15.6025 3.3125 19.8925 3.3125 24.3125 C2.3225 24.3125 1.3325 24.3125 0.3125 24.3125 C0.3125 22.9925 0.3125 21.6725 0.3125 20.3125 C-3.3175 20.3125 -6.9475 20.3125 -10.6875 20.3125 C-10.8125 13.5625 -10.8125 13.5625 -9.6875 11.3125 C-9.0275 11.3125 -8.3675 11.3125 -7.6875 11.3125 C-7.419375 10.425625 -7.15125 9.53875 -6.875 8.625 C-3.94757326 0.45902015 -3.94757326 0.45902015 0 0 Z " fill="#661FA2" transform="translate(348.6875,507.6875)"/>
<path d="M0 0 C2.625 0.375 2.625 0.375 5 1 C5.05395478 2.62463842 5.09277195 4.24978541 5.125 5.875 C5.14820313 6.77992188 5.17140625 7.68484375 5.1953125 8.6171875 C5 11 5 11 3 13 C0.9375 12.75 0.9375 12.75 -1 12 C-2.11445498 9.77109005 -2.16480286 8.46944894 -2.1875 6 C-2.20167969 5.29875 -2.21585937 4.5975 -2.23046875 3.875 C-2 2 -2 2 0 0 Z " fill="#08020B" transform="translate(403,517)"/>
<path d="M0 0 C0.66 0 1.32 0 2 0 C2 7.59 2 15.18 2 23 C0.35 22.67 -1.3 22.34 -3 22 C-2.505 20.515 -2.505 20.515 -2 19 C-1.931009 16.93854893 -1.91532273 14.87498599 -1.9375 12.8125 C-1.94652344 11.72582031 -1.95554687 10.63914062 -1.96484375 9.51953125 C-1.97644531 8.68808594 -1.98804688 7.85664062 -2 7 C-1.34 7 -0.68 7 0 7 C0 4.69 0 2.38 0 0 Z " fill="#741EA4" transform="translate(409,509)"/>
<path d="M0 0 C0.66 0.33 1.32 0.66 2 1 C-1.90510489 6.50719921 -6.09717644 11.35827355 -11 16 C-11.66 15.67 -12.32 15.34 -13 15 C-12.195625 14.236875 -11.39125 13.47375 -10.5625 12.6875 C-7.83200976 10.20569102 -7.83200976 10.20569102 -7 7 C-5.02043058 5.30911778 -3.02054804 3.64169528 -1 2 C-0.67 1.34 -0.34 0.68 0 0 Z " fill="#3111B6" transform="translate(201,210)"/>
<path d="M0 0 C0.33 0.99 0.66 1.98 1 3 C4.3 3 7.6 3 11 3 C11 3.66 11 4.32 11 5 C6.38 5 1.76 5 -3 5 C-1 1 -1 1 0 0 Z " fill="#7021AB" transform="translate(362,527)"/>
<path d="M0 0 C1.65 0 3.3 0 5 0 C5 0.66 5 1.32 5 2 C4.34 2 3.68 2 3 2 C2.34 3.65 1.68 5.3 1 7 C0.01 7 -0.98 7 -2 7 C-2.99 7.495 -2.99 7.495 -4 8 C-2.66666667 5.33333333 -1.33333333 2.66666667 0 0 Z " fill="#5A1C92" transform="translate(346,508)"/>
<path d="M0 0 C0 0.33 0 0.66 0 1 C-1.546875 1.12375 -1.546875 1.12375 -3.125 1.25 C-7.52975387 2.10253301 -9.48512937 3.34241489 -13 6 C-13 5.01 -13 4.02 -13 3 C-8.79593898 -0.54717649 -5.23066851 -0.2659662 0 0 Z " fill="#611273" transform="translate(595,407)"/>
<path d="M0 0 C0.66 0.33 1.32 0.66 2 1 C1.01 1.66 0.02 2.32 -1 3 C-0.67 2.01 -0.34 1.02 0 0 Z M-4 3 C-3.01 3.33 -2.02 3.66 -1 4 C-4.465 6.97 -4.465 6.97 -8 10 C-7.04065919 6.16263678 -6.76390737 5.40339772 -4 3 Z " fill="#0A041B" transform="translate(327,224)"/>
<path d="M0 0 C0.33 1.98 0.66 3.96 1 6 C0.67 5.01 0.34 4.02 0 3 C-2.64 3.33 -5.28 3.66 -8 4 C-6.4425489 0.88509781 -3.40085499 0 0 0 Z " fill="#290B3D" transform="translate(500,363)"/>
</svg>
